<svg
  fill="none"
  height="459"
  view-box="0 0 458 459"
  width="458"
  xmlns="http://www.w3.org/2000/svg"
>
  <path
    clip-rule="evenodd"
    d="M229 458.251C188.151 460.735 81.1314 458.251 47.5323 431.892C39.6089 425.675 32.4701 418.513 26.2741 410.564C0 376.855 0 327.612 0 229.126C0 130.639 0 81.3959 26.2741 47.6873C32.4701 39.738 39.6089 32.576 47.5323 26.3598C81.1314 0 130.421 0 229 0C327.579 0 376.869 0 410.468 26.3598C418.391 32.576 425.53 39.738 431.726 47.6873C458 81.3959 458 192.49 458 229.126C458 265.761 401.059 263.898 401.059 229.747C401.059 195.595 401.059 108.619 376.364 83.2813C375.911 82.8163 375.453 82.3565 374.989 81.9019C349.734 57.1262 309.489 57.1262 229 57.1262C148.511 57.1262 108.266 57.1262 83.0106 81.9019C82.5472 82.3565 82.0889 82.8163 81.6358 83.2813C56.9405 108.619 56.9405 148.995 56.9405 229.747C56.9405 310.498 56.9405 350.874 81.6358 376.212C82.0889 376.677 82.5472 377.137 83.0106 377.591C108.266 402.367 193.103 402.367 229 402.367C264.897 402.367 269.849 455.768 229 458.251ZM264.278 353.934C214.436 353.934 154.237 353.934 136.372 341.868C128.821 336.769 122.325 330.252 117.243 322.677C105.216 304.753 105.216 279.751 105.216 229.747C105.216 179.742 105.216 154.74 117.243 136.816C122.325 129.241 128.821 122.724 136.372 117.625C154.237 105.559 179.158 105.559 229 105.559C278.842 105.559 303.763 105.559 321.628 117.625C329.179 122.724 335.675 129.241 340.757 136.816C352.784 154.74 352.784 214.515 352.784 264.519C352.77 296.314 359.689 306.797 384.72 307.343C398.114 307.389 405.652 307.941 412.2 311.734C417.845 315.004 422.533 319.707 425.792 325.371C430.768 334.016 430.768 345.623 430.768 368.836C430.768 392.05 430.768 403.657 425.792 412.302C422.533 417.966 417.845 422.669 412.2 425.939C403.583 430.93 392.014 430.93 368.876 430.93C345.738 430.93 334.169 430.93 325.551 425.939C319.906 422.669 315.218 417.966 311.959 412.302C308.19 405.752 307.276 397.503 307.055 383.794C305.599 361.282 294.49 353.921 264.278 353.934ZM173.297 223.862C173.297 200.292 173.297 188.507 180.62 181.185C187.942 173.862 199.727 173.862 223.297 173.862H234.703C258.273 173.862 270.058 173.862 277.38 181.185C284.703 188.507 284.703 200.292 284.703 223.862V235.631C284.703 259.201 284.703 270.986 277.38 278.309C270.058 285.631 258.273 285.631 234.703 285.631H223.297C199.727 285.631 187.942 285.631 180.62 278.309C173.297 270.986 173.297 259.201 173.297 235.631V223.862Z"
    fill="currentColor"
    fill-rule="evenodd"
  />
</svg>